<?xml version="1.0" encoding="UTF-8"?>
<!DOCTYPE svg PUBLIC "-//W3C//DTD SVG 1.1//EN" "http://www.w3.org/Graphics/SVG/1.1/DTD/svg11.dtd">
<svg xmlns="http://www.w3.org/2000/svg" version="1.1" width="512px" height="512px" style="shape-rendering:geometricPrecision; text-rendering:geometricPrecision; image-rendering:optimizeQuality; fill-rule:evenodd; clip-rule:evenodd" xmlns:xlink="http://www.w3.org/1999/xlink">
<g><path style="opacity:0.954" fill="#63B2FF" d="M 45.5,-0.5 C 72.8333,-0.5 100.167,-0.5 127.5,-0.5C 127.5,15.8333 127.5,32.1667 127.5,48.5C 100.167,48.5 72.8333,48.5 45.5,48.5C 45.5,32.1667 45.5,15.8333 45.5,-0.5 Z"/></g>
<g><path style="opacity:0.965" fill="#63B2FF" d="M 159.5,-0.5 C 186.5,-0.5 213.5,-0.5 240.5,-0.5C 240.5,15.8333 240.5,32.1667 240.5,48.5C 213.5,48.5 186.5,48.5 159.5,48.5C 159.5,32.1667 159.5,15.8333 159.5,-0.5 Z"/></g>
<g><path style="opacity:0.956" fill="#63B2FF" d="M 271.5,-0.5 C 298.833,-0.5 326.167,-0.5 353.5,-0.5C 353.5,15.8333 353.5,32.1667 353.5,48.5C 326.167,48.5 298.833,48.5 271.5,48.5C 271.5,32.1667 271.5,15.8333 271.5,-0.5 Z"/></g>
<g><path style="opacity:0.954" fill="#63B2FF" d="M 384.5,-0.5 C 411.833,-0.5 439.167,-0.5 466.5,-0.5C 466.5,15.8333 466.5,32.1667 466.5,48.5C 439.167,48.5 411.833,48.5 384.5,48.5C 384.5,32.1667 384.5,15.8333 384.5,-0.5 Z"/></g>
<g><path style="opacity:0.956" fill="#63B2FF" d="M 511.5,75.5 C 511.5,81.8333 511.5,88.1667 511.5,94.5C 509.416,97.7652 507.083,100.932 504.5,104C 501.583,105.528 498.583,106.861 495.5,108C 335.5,108.667 175.5,108.667 15.5,108C 12.4167,106.861 9.41666,105.528 6.5,104C 3.9174,100.932 1.58407,97.7652 -0.5,94.5C -0.5,88.1667 -0.5,81.8333 -0.5,75.5C 1.88599,71.6033 4.88599,68.1033 8.5,65C 11.7735,63.7977 15.1069,62.7977 18.5,62C 176.5,61.3333 334.5,61.3333 492.5,62C 495.893,62.7977 499.226,63.7977 502.5,65C 506.114,68.1033 509.114,71.6033 511.5,75.5 Z"/></g>
<g><path style="opacity:0.978" fill="#63B2FF" d="M 127.5,511.5 C 100.167,511.5 72.8333,511.5 45.5,511.5C 45.5,381.833 45.5,252.167 45.5,122.5C 72.8333,122.5 100.167,122.5 127.5,122.5C 127.5,252.167 127.5,381.833 127.5,511.5 Z"/></g>
<g><path style="opacity:0.985" fill="#63B2FF" d="M 159.5,122.5 C 186.5,122.5 213.5,122.5 240.5,122.5C 240.5,226.833 240.5,331.167 240.5,435.5C 213.5,435.5 186.5,435.5 159.5,435.5C 159.5,331.167 159.5,226.833 159.5,122.5 Z"/></g>
<g><path style="opacity:0.972" fill="#63B2FF" d="M 271.5,122.5 C 298.833,122.5 326.167,122.5 353.5,122.5C 353.5,190.5 353.5,258.5 353.5,326.5C 326.167,326.5 298.833,326.5 271.5,326.5C 271.5,258.5 271.5,190.5 271.5,122.5 Z"/></g>
<g><path style="opacity:0.972" fill="#63B2FF" d="M 384.5,122.5 C 411.833,122.5 439.167,122.5 466.5,122.5C 466.5,161.833 466.5,201.167 466.5,240.5C 439.167,240.5 411.833,240.5 384.5,240.5C 384.5,201.167 384.5,161.833 384.5,122.5 Z"/></g>
</svg>
