<?xml version="1.0" standalone="no"?>
<!DOCTYPE svg PUBLIC "-//W3C//DTD SVG 20010904//EN"
 "http://www.w3.org/TR/2001/REC-SVG-20010904/DTD/svg10.dtd">
<svg version="1.0" xmlns="http://www.w3.org/2000/svg"
 width="980.000000pt" height="980.000000pt" viewBox="0 0 980.000000 980.000000"
 preserveAspectRatio="xMidYMid meet">

<g transform="translate(0.000000,980.000000) scale(0.100000,-0.100000)"
fill="#63B2FF" stroke="none">
<path d="M3250 8992 c-110 -37 -204 -120 -255 -227 -48 -101 -45 -254 5 -355
98 -194 334 -281 537 -198 l61 25 326 -326 326 -326 0 -248 0 -247 -178 0
-177 0 -355 355 -355 355 -812 0 -811 0 -16 46 c-38 112 -113 195 -224 247
-62 30 -75 32 -172 32 -100 0 -109 -2 -175 -34 -89 -44 -157 -113 -198 -199
-30 -63 -32 -74 -32 -177 0 -98 3 -116 27 -167 37 -80 83 -135 150 -178 225
-147 528 -48 619 200 l22 60 781 0 781 0 269 -269 269 -269 -204 -4 c-187 -5
-211 -7 -284 -32 -186 -61 -331 -202 -397 -386 -23 -65 -23 -67 -26 -627 -1
-310 -6 -563 -10 -563 -4 0 -176 169 -382 375 l-374 375 -211 0 -211 0 -17 53
c-60 190 -271 315 -468 279 -127 -24 -244 -113 -301 -230 -31 -64 -33 -72 -33
-182 0 -114 0 -115 39 -187 46 -88 105 -144 194 -186 63 -30 74 -32 178 -32
106 0 113 1 178 34 90 46 165 127 203 220 l28 71 175 0 175 0 418 -418 418
-418 -3 -109 -3 -110 -591 -3 -590 -2 -17 53 c-35 112 -135 216 -246 258 -204
76 -426 -12 -524 -210 -30 -62 -32 -72 -32 -176 0 -108 1 -113 37 -187 45 -91
103 -147 196 -191 63 -30 74 -32 177 -32 105 0 113 2 177 34 104 52 182 143
217 254 l13 37 594 0 594 0 0 -112 0 -112 -417 -418 -418 -418 -175 2 -174 3
-23 60 c-47 123 -147 217 -271 255 -196 61 -402 -31 -495 -219 -30 -62 -32
-72 -32 -176 0 -103 2 -114 31 -175 46 -95 101 -153 192 -197 74 -37 78 -38
187 -38 97 1 117 4 167 27 102 47 187 143 224 252 l16 46 211 0 212 0 375 375
c206 206 378 375 382 375 5 0 8 -242 8 -538 0 -597 0 -597 66 -729 69 -137
195 -246 346 -301 69 -25 86 -27 287 -30 l214 -4 -274 -274 -274 -274 -775 0
-776 0 -19 56 c-49 144 -173 247 -329 275 -176 30 -359 -68 -443 -239 -26 -52
-28 -66 -28 -172 0 -104 3 -120 27 -173 35 -74 130 -170 200 -202 230 -104
490 6 574 243 l19 52 810 0 810 0 355 355 355 355 177 0 178 0 0 -248 0 -247
-327 -327 -328 -328 -60 24 c-210 85 -430 0 -536 -205 -32 -61 -34 -69 -34
-174 0 -103 2 -114 32 -177 41 -88 98 -148 183 -192 238 -125 528 0 595 259
27 106 19 182 -33 298 l-25 58 351 352 352 352 0 278 0 277 200 0 200 0 -2
-612 -3 -611 -46 -16 c-106 -37 -187 -106 -237 -202 -131 -250 22 -554 302
-602 282 -48 531 211 472 491 -33 159 -137 268 -308 326 -17 5 -18 43 -18 616
l0 610 200 0 200 0 0 -277 0 -278 352 -352 351 -352 -25 -58 c-52 -116 -60
-192 -33 -298 41 -157 158 -266 324 -300 182 -39 372 58 454 232 30 63 32 75
32 174 0 101 -1 108 -38 181 -99 202 -323 287 -532 203 l-60 -25 -327 328
-328 327 0 247 0 248 178 0 177 0 355 -355 355 -355 812 0 c653 0 813 -3 813
-13 0 -34 71 -157 116 -201 208 -202 542 -142 671 122 26 52 28 66 28 172 0
110 -2 119 -32 181 -80 162 -266 260 -435 230 -142 -25 -253 -107 -313 -233
-19 -40 -35 -78 -35 -85 0 -10 -153 -13 -778 -13 l-777 0 -268 268 c-147 147
-267 270 -267 275 0 4 82 7 183 7 210 0 273 11 387 68 103 51 212 160 263 262
67 136 67 134 67 732 0 296 3 538 8 538 4 0 176 -169 382 -375 l375 -375 212
0 211 0 13 -37 c44 -136 140 -232 280 -278 77 -26 205 -17 283 18 113 52 191
138 229 251 21 62 22 186 2 253 -34 116 -138 223 -260 269 -73 28 -210 25
-288 -5 -112 -44 -216 -155 -247 -265 l-13 -46 -176 0 -176 0 -417 418 -418
417 0 113 0 112 594 0 594 0 13 -37 c35 -111 113 -202 217 -254 64 -32 72 -34
178 -34 107 0 112 1 186 38 91 44 146 102 192 197 29 61 31 72 31 175 0 104
-2 114 -32 176 -43 87 -108 150 -201 196 -72 36 -81 38 -171 37 -74 0 -109 -5
-151 -22 -114 -45 -212 -148 -247 -259 l-17 -53 -590 2 -591 3 -3 110 -3 109
418 418 418 418 177 0 178 0 6 -27 c23 -100 129 -224 231 -271 85 -38 217 -43
307 -11 121 42 211 132 256 256 19 53 22 77 18 156 -3 80 -8 103 -35 158 -103
208 -353 295 -557 195 -28 -14 -69 -40 -90 -58 -49 -40 -109 -132 -126 -193
l-13 -46 -211 2 -211 1 -376 -376 c-207 -207 -379 -376 -382 -376 -3 0 -6 245
-7 544 0 452 -3 554 -16 602 -44 172 -169 322 -329 398 -106 51 -152 59 -368
65 l-197 6 272 270 273 270 776 -3 776 -2 22 -60 c55 -151 197 -256 359 -267
177 -12 331 77 405 235 30 63 32 74 32 177 0 103 -2 114 -31 175 -40 83 -87
136 -157 178 -230 138 -527 31 -613 -222 l-16 -46 -810 0 -810 0 -356 -355
-355 -355 -179 0 -178 0 0 248 0 247 329 329 c256 256 333 327 343 319 7 -6
41 -21 75 -32 192 -65 410 26 503 209 47 93 51 236 11 342 -25 64 -101 155
-162 194 -211 133 -484 53 -596 -174 -36 -73 -38 -80 -38 -177 0 -96 2 -105
35 -173 l36 -71 -353 -353 -353 -353 0 -277 0 -278 -200 0 -200 0 0 550 c0
517 1 550 18 550 37 0 145 62 196 112 158 159 162 415 8 576 -239 250 -650
125 -712 -217 -31 -173 62 -356 222 -435 39 -20 79 -36 89 -36 18 0 19 -20 19
-550 l0 -550 -200 0 -200 0 0 277 0 277 -352 353 -352 352 27 55 c105 214 23
458 -189 562 -63 32 -84 37 -161 40 -67 3 -101 0 -143 -14z m198 -157 c174
-52 236 -272 115 -406 -56 -62 -105 -83 -188 -83 -85 0 -134 22 -193 89 -138
156 -24 405 189 414 14 1 49 -6 77 -14z m1573 -21 c85 -47 129 -122 129 -221
-1 -261 -351 -346 -472 -114 -73 139 -3 308 150 358 55 19 133 9 193 -23z
m1517 7 c44 -23 93 -73 118 -121 27 -51 25 -162 -3 -216 -49 -92 -151 -151
-247 -141 -186 19 -294 227 -196 380 72 113 215 156 328 98z m-5307 -866 c230
-79 227 -404 -4 -481 -157 -52 -327 74 -327 241 0 173 169 295 331 240z m7527
-14 c183 -93 190 -348 13 -444 -130 -71 -281 -25 -348 106 -107 212 124 446
335 338z m-2270 -1021 c184 -24 335 -152 386 -331 15 -50 16 -214 14 -1680
l-3 -1624 -37 -78 c-62 -128 -167 -216 -303 -252 -52 -13 -253 -15 -1645 -15
-1728 0 -1636 -3 -1752 56 -77 39 -152 120 -196 211 l-37 78 0 1650 0 1650 37
75 c67 138 206 241 350 259 92 12 3093 12 3186 1z m-5239 -537 c94 -38 155
-130 154 -232 -3 -255 -340 -345 -469 -126 -35 61 -43 148 -19 211 53 140 197
203 334 147z m7503 0 c52 -21 122 -101 138 -158 36 -129 -34 -267 -157 -311
-123 -44 -269 23 -320 145 -26 61 -20 150 13 211 65 119 197 165 326 113z
m-7478 -1231 c81 -44 128 -123 129 -216 0 -103 -54 -189 -148 -232 -154 -72
-335 30 -352 200 -8 80 11 138 66 198 83 90 197 109 305 50z m7478 11 c52 -21
122 -101 138 -158 58 -208 -151 -392 -345 -301 -132 61 -185 209 -121 340 60
122 197 172 328 119z m-7542 -1204 c111 -24 193 -130 193 -249 -2 -209 -240
-322 -408 -194 -77 58 -112 172 -85 270 19 67 90 140 160 164 65 23 74 23 140
9z m7509 -5 c68 -20 132 -78 161 -146 43 -100 10 -229 -74 -293 -167 -127
-406 -14 -408 195 -1 121 78 221 197 251 47 11 68 10 124 -7z m-7463 -1575
c197 -95 196 -364 -1 -459 -86 -42 -220 -15 -287 56 -89 96 -89 252 0 348 68
72 201 98 288 55z m7503 -3 c155 -79 189 -290 64 -408 -69 -66 -195 -88 -278
-49 -151 70 -194 259 -90 396 63 82 205 111 304 61z m-5263 -885 c86 -50 129
-126 128 -226 -2 -183 -197 -301 -362 -219 -184 92 -188 347 -7 446 41 23 63
28 120 28 59 0 78 -5 121 -29z m3039 5 c82 -37 133 -110 142 -201 19 -182
-161 -322 -336 -260 -61 21 -104 58 -136 117 -67 123 -18 280 107 342 69 35
152 35 223 2z m-1563 -106 c99 -28 178 -135 178 -241 0 -102 -43 -176 -131
-224 -167 -91 -368 29 -369 220 0 171 158 290 322 245z"/>
<path d="M4295 6043 c-4 -10 -40 -115 -80 -233 -95 -278 -365 -1075 -539
-1585 -75 -221 -136 -406 -136 -413 0 -10 36 -12 148 -10 l147 3 116 350 115
350 404 0 403 0 12 -35 c6 -19 60 -178 119 -352 l108 -318 154 0 c85 0 154 4
154 8 0 5 -14 49 -31 98 -17 49 -60 172 -94 274 -35 102 -159 464 -275 805
-117 341 -246 722 -288 848 l-77 227 -176 0 c-159 0 -178 -2 -184 -17z m211
-373 c15 -63 88 -293 162 -510 73 -217 134 -399 135 -405 2 -10 -634 -20 -659
-11 -6 2 38 148 116 383 70 208 144 444 166 525 21 81 42 144 45 140 3 -4 19
-59 35 -122z"/>
<path d="M5752 4933 l3 -1128 145 0 145 0 3 1128 2 1127 -150 0 -150 0 2
-1127z"/>
</g>
</svg>
